<?xml version="1.0" encoding="UTF-8" standalone="no"?>
<!-- Created by Flowgorithm 4.4.2 (http://flowgorithm.org) -->

<svg xmlns:svg="http://www.w3.org/2000/svg" xmlns="http://www.w3.org/2000/svg" version="1.1" width="1500" height="2000">
	<rect x="0" y="0" width="1500" height="2000" fill="#FFFFFF"/>
	<g>
		<polyline fill="none" stroke="#404040" stroke-width="6" stroke-dasharray="none" points="825,125 825,186"/>
		<polygon fill="#404040" stroke="none" points="825,200 838,175 811,175"/>
		<polyline fill="none" stroke="#404040" stroke-width="6" stroke-dasharray="none" points="825,1800 825,1861"/>
		<polygon fill="#404040" stroke="none" points="825,1875 838,1850 811,1850"/>
		<g>
			<path fill="#F0E0FF" stroke="#9070A0" stroke-width="3" stroke-dasharray="none" d="M 725,25 A 50 50, 0, 0 0, 725 125 L 925,125 A 50 50, 0, 0 0, 925 25 Z"/>
			<text x="825" y="40" fill="#301040" font-family="Arial" font-size="32pt" text-anchor="middle" direction="ltr">
				<tspan x="825" dy="50" unicode-bidi="embed">F&#337;program</tspan>
			</text>
		</g>
		<g>
			<path fill="#F0E0FF" stroke="#9070A0" stroke-width="3" stroke-dasharray="none" d="M 725,1875 A 50 50, 0, 0 0, 725 1975 L 925,1975 A 50 50, 0, 0 0, 925 1875 Z"/>
			<text x="825" y="1890" fill="#301040" font-family="Arial" font-size="32pt" text-anchor="middle" direction="ltr">
				<tspan x="825" dy="50" unicode-bidi="embed">V&#233;ge</tspan>
			</text>
		</g>
		<g>
			<polyline fill="none" stroke="#404040" stroke-width="6" stroke-dasharray="none" points="825,325 825,386"/>
			<polygon fill="#404040" stroke="none" points="825,400 838,375 811,375"/>
			<polyline fill="none" stroke="#404040" stroke-width="6" stroke-dasharray="none" points="825,525 825,586"/>
			<polygon fill="#404040" stroke="none" points="825,600 838,575 811,575"/>
			<polyline fill="none" stroke="#404040" stroke-width="6" stroke-dasharray="none" points="825,800 825,861"/>
			<polygon fill="#404040" stroke="none" points="825,875 838,850 811,850"/>
			<polyline fill="none" stroke="#404040" stroke-width="6" stroke-dasharray="none" points="825,975 825,1036"/>
			<polygon fill="#404040" stroke="none" points="825,1050 838,1025 811,1025"/>
			<polyline fill="none" stroke="#404040" stroke-width="6" stroke-dasharray="none" points="825,1150 825,1211"/>
			<polygon fill="#404040" stroke="none" points="825,1225 838,1200 811,1200"/>
			<g>
				<path fill="#FFFFD8" stroke="#A0A078" stroke-width="3" stroke-dasharray="none" d="M 675,200 L 675,325 L 975,325 L 975,200 Z"/>
				<polyline fill="none" stroke="#A0A078" stroke-width="3" stroke-dasharray="none" points="675,225 975,225"/>
				<polyline fill="none" stroke="#A0A078" stroke-width="3" stroke-dasharray="none" points="700,200 700,325"/>
				<text x="837" y="240" fill="#404018" font-family="Arial" font-size="32pt" text-anchor="middle" direction="ltr">
					<tspan x="837" dy="50" unicode-bidi="embed">fok: eg&#233;sz</tspan>
				</text>
			</g>
			<g>
				<path fill="#FFFFD8" stroke="#A0A078" stroke-width="3" stroke-dasharray="none" d="M 675,400 L 675,525 L 975,525 L 975,400 Z"/>
				<polyline fill="none" stroke="#A0A078" stroke-width="3" stroke-dasharray="none" points="675,425 975,425"/>
				<polyline fill="none" stroke="#A0A078" stroke-width="3" stroke-dasharray="none" points="700,400 700,525"/>
				<text x="837" y="440" fill="#404018" font-family="Arial" font-size="32pt" text-anchor="middle" direction="ltr">
					<tspan x="837" dy="50" unicode-bidi="embed">id&#337;: eg&#233;sz</tspan>
				</text>
			</g>
			<g>
				<path fill="#D8FFD8" stroke="#78A078" stroke-width="3" stroke-dasharray="none" d="M 550,600 L 450,800 L 1100,800 L 1200,600 Z"/>
				<text x="825" y="615" fill="#184018" font-family="Arial" font-size="32pt" text-anchor="middle" direction="ltr">
					<tspan x="825" dy="50" unicode-bidi="embed">Ki: &quot;Mennyi ideje megy a g&#233;p</tspan>
					<tspan x="825" dy="50" unicode-bidi="embed"> &#233;s menny i a bels&#337;</tspan>
					<tspan x="825" dy="50" unicode-bidi="embed"> h&#337;m&#233;rs&#233;klete?&quot;</tspan>
				</text>
			</g>
			<g>
				<path fill="#D0E8FF" stroke="#7088A0" stroke-width="3" stroke-dasharray="none" d="M 725,875 L 675,975 L 925,975 L 975,875 Z"/>
				<text x="825" y="890" fill="#102840" font-family="Arial" font-size="32pt" text-anchor="middle" direction="ltr">
					<tspan x="825" dy="50" unicode-bidi="embed">Be: id&#337;</tspan>
				</text>
			</g>
			<g>
				<path fill="#D0E8FF" stroke="#7088A0" stroke-width="3" stroke-dasharray="none" d="M 725,1050 L 675,1150 L 925,1150 L 975,1050 Z"/>
				<text x="825" y="1065" fill="#102840" font-family="Arial" font-size="32pt" text-anchor="middle" direction="ltr">
					<tspan x="825" dy="50" unicode-bidi="embed">Be: fok</tspan>
				</text>
			</g>
			<g>
				<polyline fill="none" stroke="#404040" stroke-width="6" stroke-dasharray="none" points="1050,1350 1200,1350 1200,1511"/>
				<polygon fill="#404040" stroke="none" points="1200,1525 1213,1500 1186,1500"/>
				<polyline fill="none" stroke="#404040" stroke-width="6" stroke-dasharray="none" points="1200,1625 1200,1775 863,1775"/>
				<polygon fill="#404040" stroke="none" points="850,1775 874,1788 874,1761"/>
				<polyline fill="none" stroke="#404040" stroke-width="6" stroke-dasharray="none" points="600,1350 400,1350 400,1511"/>
				<polygon fill="#404040" stroke="none" points="400,1525 413,1500 386,1500"/>
				<polyline fill="none" stroke="#404040" stroke-width="6" stroke-dasharray="none" points="400,1675 400,1775 786,1775"/>
				<polygon fill="#404040" stroke="none" points="800,1775 775,1761 775,1788"/>
				<g>
					<path fill="#FFD8D8" stroke="#A07878" stroke-width="3" stroke-dasharray="none" d="M 825,1225 L 575,1350 L 825,1475 L 1075,1350 Z"/>
					<text x="825" y="1315" fill="#401818" font-family="Arial" font-size="32pt" text-anchor="middle" direction="ltr">
						<tspan x="825" dy="50" unicode-bidi="embed">id&#337;&gt;=45 || fok&gt;=180</tspan>
					</text>
				</g>
				<g>
					<path fill="#D8FFD8" stroke="#78A078" stroke-width="3" stroke-dasharray="none" d="M 975,1525 L 925,1625 L 1425,1625 L 1475,1525 Z"/>
					<text x="1200" y="1540" fill="#184018" font-family="Arial" font-size="32pt" text-anchor="middle" direction="ltr">
						<tspan x="1200" dy="50" unicode-bidi="embed">Ki: &quot;&#193;ll&#237;tsa le a g&#233;pet&quot;</tspan>
					</text>
				</g>
				<g>
					<path fill="#D8FFD8" stroke="#78A078" stroke-width="3" stroke-dasharray="none" d="M 125,1525 L 50,1675 L 675,1675 L 750,1525 Z"/>
					<text x="400" y="1540" fill="#184018" font-family="Arial" font-size="32pt" text-anchor="middle" direction="ltr">
						<tspan x="400" dy="50" unicode-bidi="embed">Ki: &quot;M&#233;g dolgozhat tov&#225;bb a</tspan>
						<tspan x="400" dy="50" unicode-bidi="embed"> g&#233;p&quot;</tspan>
					</text>
				</g>
				<ellipse cx="825" cy="1775" rx="25" ry="25" fill="#FFD8D8" stroke="#A07878" stroke-width="3"/>
				<text x="1137" y="1265" fill="#404040" font-family="Arial" font-size="32pt" text-anchor="middle" direction="ltr">
					<tspan x="1137" dy="50" unicode-bidi="embed">igaz</tspan>
				</text>
				<text x="487" y="1265" fill="#404040" font-family="Arial" font-size="32pt" text-anchor="middle" direction="ltr">
					<tspan x="487" dy="50" unicode-bidi="embed">hamis</tspan>
				</text>
			</g>
		</g>
	</g>
</svg>
