<?xml version="1.0" encoding="UTF-8" standalone="no"?>
<!-- Created by Flowgorithm 4.4.2 (http://flowgorithm.org) -->

<svg xmlns:svg="http://www.w3.org/2000/svg" xmlns="http://www.w3.org/2000/svg" version="1.1" width="2100" height="2375">
	<rect x="0" y="0" width="2100" height="2375" fill="#FFFFFF"/>
	<g>
		<polyline fill="none" stroke="#404040" stroke-width="6" stroke-dasharray="none" points="225,125 225,186"/>
		<polygon fill="#404040" stroke="none" points="225,200 238,175 211,175"/>
		<polyline fill="none" stroke="#404040" stroke-width="6" stroke-dasharray="none" points="225,700 225,2236"/>
		<polygon fill="#404040" stroke="none" points="225,2250 238,2225 211,2225"/>
		<g>
			<path fill="#F0E0FF" stroke="#9070A0" stroke-width="3" stroke-dasharray="none" d="M 125,25 A 50 50, 0, 0 0, 125 125 L 325,125 A 50 50, 0, 0 0, 325 25 Z"/>
			<text x="225" y="40" fill="#301040" font-family="Arial" font-size="32pt" text-anchor="middle" direction="ltr">
				<tspan x="225" dy="50" unicode-bidi="embed">F&#337;program</tspan>
			</text>
		</g>
		<g>
			<path fill="#F0E0FF" stroke="#9070A0" stroke-width="3" stroke-dasharray="none" d="M 125,2250 A 50 50, 0, 0 0, 125 2350 L 325,2350 A 50 50, 0, 0 0, 325 2250 Z"/>
			<text x="225" y="2265" fill="#301040" font-family="Arial" font-size="32pt" text-anchor="middle" direction="ltr">
				<tspan x="225" dy="50" unicode-bidi="embed">V&#233;ge</tspan>
			</text>
		</g>
		<g>
			<polyline fill="none" stroke="#404040" stroke-width="6" stroke-dasharray="none" points="225,325 225,386"/>
			<polygon fill="#404040" stroke="none" points="225,400 238,375 211,375"/>
			<polyline fill="none" stroke="#404040" stroke-width="6" stroke-dasharray="none" points="225,500 225,586"/>
			<polygon fill="#404040" stroke="none" points="225,600 238,575 211,575"/>
			<g>
				<path fill="#FFFFD8" stroke="#A0A078" stroke-width="3" stroke-dasharray="none" d="M 50,200 L 50,325 L 400,325 L 400,200 Z"/>
				<polyline fill="none" stroke="#A0A078" stroke-width="3" stroke-dasharray="none" points="50,225 400,225"/>
				<polyline fill="none" stroke="#A0A078" stroke-width="3" stroke-dasharray="none" points="75,200 75,325"/>
				<text x="237" y="240" fill="#404018" font-family="Arial" font-size="32pt" text-anchor="middle" direction="ltr">
					<tspan x="237" dy="50" unicode-bidi="embed">szh&#225;m: eg&#233;sz</tspan>
				</text>
			</g>
			<g>
				<path fill="#FFFFD8" stroke="#A0A078" stroke-width="3" stroke-dasharray="none" d="M 75,400 L 75,500 L 375,500 L 375,400 Z"/>
				<text x="225" y="415" fill="#404018" font-family="Arial" font-size="32pt" text-anchor="middle" direction="ltr">
					<tspan x="225" dy="50" unicode-bidi="embed">szh&#225;m = 1</tspan>
				</text>
			</g>
			<g>
				<polyline fill="none" stroke="#404040" stroke-width="6" stroke-dasharray="none" points="425,650 1600,650 1600,736"/>
				<polygon fill="#404040" stroke="none" points="1600,750 1613,725 1586,725"/>
				<polyline fill="none" stroke="#404040" stroke-width="6" stroke-dasharray="none" points="1600,2075 1600,2150 275,2150 275,713"/>
				<polygon fill="#404040" stroke="none" points="275,700 261,724 288,724"/>
				<g>
					<polyline fill="none" stroke="#404040" stroke-width="6" stroke-dasharray="none" points="1600,1900 1600,1961"/>
					<polygon fill="#404040" stroke="none" points="1600,1975 1613,1950 1586,1950"/>
					<g>
						<polyline fill="none" stroke="#404040" stroke-width="6" stroke-dasharray="none" points="1900,925 2050,925 2050,1875 1638,1875"/>
						<polygon fill="#404040" stroke="none" points="1625,1875 1649,1888 1649,1861"/>
						<polyline fill="none" stroke="#404040" stroke-width="6" stroke-dasharray="none" points="1300,925 925,925 925,1136"/>
						<polygon fill="#404040" stroke="none" points="925,1150 938,1125 911,1125"/>
						<polyline fill="none" stroke="#404040" stroke-width="6" stroke-dasharray="none" points="925,1775 925,1875 1561,1875"/>
						<polygon fill="#404040" stroke="none" points="1575,1875 1550,1861 1550,1888"/>
						<g>
							<path fill="#FFD8D8" stroke="#A07878" stroke-width="3" stroke-dasharray="none" d="M 1600,750 L 1275,925 L 1600,1100 L 1925,925 Z"/>
							<text x="1600" y="890" fill="#401818" font-family="Arial" font-size="32pt" text-anchor="middle" direction="ltr">
								<tspan x="1600" dy="50" unicode-bidi="embed">szh&#225;m%2=0 &amp;&amp; szh&#225;m%3=0</tspan>
							</text>
						</g>
						<g>
						</g>
						<g>
							<polyline fill="none" stroke="#404040" stroke-width="6" stroke-dasharray="none" points="1225,1325 1375,1325 1375,1536"/>
							<polygon fill="#404040" stroke="none" points="1375,1550 1388,1525 1361,1525"/>
							<polyline fill="none" stroke="#404040" stroke-width="6" stroke-dasharray="none" points="1375,1650 1375,1750 963,1750"/>
							<polygon fill="#404040" stroke="none" points="950,1750 974,1763 974,1736"/>
							<polyline fill="none" stroke="#404040" stroke-width="6" stroke-dasharray="none" points="625,1325 425,1325 425,1750 886,1750"/>
							<polygon fill="#404040" stroke="none" points="900,1750 875,1736 875,1763"/>
							<g>
								<path fill="#FFD8D8" stroke="#A07878" stroke-width="3" stroke-dasharray="none" d="M 925,1150 L 600,1325 L 925,1500 L 1250,1325 Z"/>
								<text x="925" y="1290" fill="#401818" font-family="Arial" font-size="32pt" text-anchor="middle" direction="ltr">
									<tspan x="925" dy="50" unicode-bidi="embed">szh&#225;m%2=0 || szh&#225;m%3=0</tspan>
								</text>
							</g>
							<g>
								<path fill="#D8FFD8" stroke="#78A078" stroke-width="3" stroke-dasharray="none" d="M 1250,1550 L 1200,1650 L 1500,1650 L 1550,1550 Z"/>
								<text x="1375" y="1565" fill="#184018" font-family="Arial" font-size="32pt" text-anchor="middle" direction="ltr">
									<tspan x="1375" dy="50" unicode-bidi="embed">Ki: szh&#225;m</tspan>
								</text>
							</g>
							<g>
							</g>
							<ellipse cx="925" cy="1750" rx="25" ry="25" fill="#FFD8D8" stroke="#A07878" stroke-width="3"/>
							<text x="1312" y="1240" fill="#404040" font-family="Arial" font-size="32pt" text-anchor="middle" direction="ltr">
								<tspan x="1312" dy="50" unicode-bidi="embed">igaz</tspan>
							</text>
							<text x="512" y="1240" fill="#404040" font-family="Arial" font-size="32pt" text-anchor="middle" direction="ltr">
								<tspan x="512" dy="50" unicode-bidi="embed">hamis</tspan>
							</text>
						</g>
						<ellipse cx="1600" cy="1875" rx="25" ry="25" fill="#FFD8D8" stroke="#A07878" stroke-width="3"/>
						<text x="1987" y="840" fill="#404040" font-family="Arial" font-size="32pt" text-anchor="middle" direction="ltr">
							<tspan x="1987" dy="50" unicode-bidi="embed">igaz</tspan>
						</text>
						<text x="1187" y="840" fill="#404040" font-family="Arial" font-size="32pt" text-anchor="middle" direction="ltr">
							<tspan x="1187" dy="50" unicode-bidi="embed">hamis</tspan>
						</text>
					</g>
					<g>
						<path fill="#FFFFD8" stroke="#A0A078" stroke-width="3" stroke-dasharray="none" d="M 1400,1975 L 1400,2075 L 1800,2075 L 1800,1975 Z"/>
						<text x="1600" y="1990" fill="#404018" font-family="Arial" font-size="32pt" text-anchor="middle" direction="ltr">
							<tspan x="1600" dy="50" unicode-bidi="embed">szh&#225;m = szh&#225;m+1</tspan>
						</text>
					</g>
				</g>
				<g>
					<path fill="#FFE0B0" stroke="#A08050" stroke-width="3" stroke-dasharray="none" d="M 75,600 L 25,650 L 75,700 L 375,700 L 425,650 L 375,600 Z"/>
					<text x="225" y="615" fill="#402000" font-family="Arial" font-size="32pt" text-anchor="middle" direction="ltr">
						<tspan x="225" dy="50" unicode-bidi="embed">szh&#225;m&lt;=100</tspan>
					</text>
				</g>
				<text x="487" y="565" fill="#404040" font-family="Arial" font-size="32pt" text-anchor="middle" direction="ltr">
					<tspan x="487" dy="50" unicode-bidi="embed">igaz</tspan>
				</text>
				<text x="137" y="715" fill="#404040" font-family="Arial" font-size="32pt" text-anchor="middle" direction="ltr">
					<tspan x="137" dy="50" unicode-bidi="embed">hamis</tspan>
				</text>
			</g>
		</g>
	</g>
</svg>
